<svg width="30" height="30" viewBox="0 0 30 30" fill="none" xmlns="http://www.w3.org/2000/svg">
<path fill-rule="evenodd" clip-rule="evenodd" d="M29.8733 1.02833C29.7901 0.827749 29.6684 0.645422 29.515 0.491668L29.5083 0.485001C29.1964 0.173992 28.7738 -0.000454162 28.3333 8.8803e-07H18.3333C17.8913 8.8803e-07 17.4674 0.175596 17.1548 0.488156C16.8423 0.800717 16.6667 1.22464 16.6667 1.66667C16.6667 2.10869 16.8423 2.53262 17.1548 2.84518C17.4674 3.15774 17.8913 3.33333 18.3333 3.33333H24.31L12.155 15.4883C11.9958 15.6421 11.8688 15.826 11.7815 16.0293C11.6941 16.2327 11.6482 16.4514 11.6462 16.6727C11.6443 16.894 11.6865 17.1134 11.7703 17.3183C11.8541 17.5231 11.9779 17.7092 12.1343 17.8657C12.2908 18.0221 12.4769 18.1459 12.6817 18.2297C12.8866 18.3135 13.106 18.3557 13.3273 18.3538C13.5486 18.3518 13.7673 18.3059 13.9707 18.2185C14.174 18.1312 14.3579 18.0042 14.5117 17.845L26.6667 5.69V11.6667C26.6667 12.1087 26.8423 12.5326 27.1548 12.8452C27.4674 13.1577 27.8913 13.3333 28.3333 13.3333C28.7754 13.3333 29.1993 13.1577 29.5118 12.8452C29.8244 12.5326 30 12.1087 30 11.6667V1.66667V1.66167C30 1.445 29.9567 1.23167 29.8733 1.02833ZM0 8.33333C0 6.1232 0.877974 4.00358 2.44078 2.44078C4.00358 0.877974 6.1232 8.8803e-07 8.33333 8.8803e-07H10C10.442 8.8803e-07 10.8659 0.175596 11.1785 0.488156C11.4911 0.800717 11.6667 1.22464 11.6667 1.66667C11.6667 2.10869 11.4911 2.53262 11.1785 2.84518C10.8659 3.15774 10.442 3.33333 10 3.33333H8.33333C7.00725 3.33333 5.73548 3.86012 4.7978 4.7978C3.86012 5.73548 3.33333 7.00725 3.33333 8.33333V21.6667C3.33333 22.9928 3.86012 24.2645 4.7978 25.2022C5.73548 26.1399 7.00725 26.6667 8.33333 26.6667H21.6667C22.9927 26.6667 24.2645 26.1399 25.2022 25.2022C26.1399 24.2645 26.6667 22.9928 26.6667 21.6667V20C26.6667 19.558 26.8423 19.1341 27.1548 18.8215C27.4674 18.5089 27.8913 18.3333 28.3333 18.3333C28.7754 18.3333 29.1993 18.5089 29.5118 18.8215C29.8244 19.1341 30 19.558 30 20V21.6667C30 23.8768 29.122 25.9964 27.5592 27.5592C25.9964 29.122 23.8768 30 21.6667 30H8.33333C6.1232 30 4.00358 29.122 2.44078 27.5592C0.877974 25.9964 0 23.8768 0 21.6667V8.33333Z" fill="#969696"/>
</svg>
