<svg width="29" height="25" viewBox="0 0 29 25" fill="none" xmlns="http://www.w3.org/2000/svg">
<path d="M21.6909 11.7039C22.5955 10.1623 22.9862 8.3729 22.8064 6.59458C22.5405 3.94487 21.0612 1.6026 18.6432 0L17.002 2.47445C18.664 3.57652 19.6754 5.14645 19.8507 6.89163C19.9315 7.70274 19.8305 8.52165 19.5551 9.28883C19.2797 10.056 18.8367 10.7521 18.2585 11.3266L16.4881 13.0971L18.8912 13.8026C25.1769 15.6443 25.2496 21.9656 25.2496 22.0295H28.2202C28.2202 19.3723 26.8003 14.1798 21.6909 11.7039Z" fill="#969696"/>
<path d="M11.1395 13.1179C14.416 13.1179 17.0806 10.4533 17.0806 7.17681C17.0806 3.90032 14.416 1.23575 11.1395 1.23575C7.863 1.23575 5.19843 3.90032 5.19843 7.17681C5.19843 10.4533 7.863 13.1179 11.1395 13.1179ZM11.1395 4.20628C12.7777 4.20628 14.11 5.53856 14.11 7.17681C14.11 8.81506 12.7777 10.1473 11.1395 10.1473C9.50125 10.1473 8.16896 8.81506 8.16896 7.17681C8.16896 5.53856 9.50125 4.20628 11.1395 4.20628ZM13.3674 14.6031H8.9116C3.99685 14.6031 0 18.6 0 23.5147V25H2.97053V23.5147C2.97053 20.2382 5.6351 17.5737 8.9116 17.5737H13.3674C16.6439 17.5737 19.3085 20.2382 19.3085 23.5147V25H22.279V23.5147C22.279 18.6 18.2821 14.6031 13.3674 14.6031Z" fill="#969696"/>
</svg>
