<svg width="25" height="27" viewBox="0 0 25 27" fill="none" xmlns="http://www.w3.org/2000/svg">
<path d="M10.4861 0.733408C11.0497 0.259768 11.763 0 12.5 0C13.237 0 13.9503 0.259768 14.5139 0.733408L23.8889 8.61685C24.5931 9.20963 25 10.0808 25 10.9991V24.5762C25 25.2191 24.7439 25.8356 24.2881 26.2901C23.8323 26.7446 23.2141 27 22.5694 27H17.7083C17.0637 27 16.4455 26.7446 15.9897 26.2901C15.5339 25.8356 15.2778 25.2191 15.2778 24.5762V16.9587C15.2778 16.8669 15.2412 16.7788 15.1761 16.7139C15.111 16.649 15.0226 16.6125 14.9306 16.6125H10.0694C9.97736 16.6125 9.88904 16.649 9.82392 16.7139C9.7588 16.7788 9.72222 16.8669 9.72222 16.9587V24.5762C9.72222 25.2191 9.46615 25.8356 9.01033 26.2901C8.55451 26.7446 7.93629 27 7.29167 27H2.43056C2.11137 27 1.79531 26.9373 1.50042 26.8155C1.20553 26.6937 0.937591 26.5152 0.711893 26.2901C0.486195 26.065 0.307162 25.7978 0.185015 25.5038C0.0628683 25.2097 0 24.8945 0 24.5762V10.9991C0 10.0808 0.406944 9.20963 1.11111 8.61685L10.4861 0.733408ZM13.1708 2.32201C12.983 2.16437 12.7455 2.07793 12.5 2.07793C12.2545 2.07793 12.017 2.16437 11.8292 2.32201L2.45417 10.2041C2.33815 10.3015 2.24486 10.4229 2.18081 10.56C2.11675 10.6971 2.08349 10.8464 2.08333 10.9977V24.5749C2.08333 24.766 2.23889 24.9211 2.43056 24.9211H7.29167C7.38376 24.9211 7.47207 24.8846 7.53719 24.8197C7.60231 24.7548 7.63889 24.6667 7.63889 24.5749V16.9573C7.63889 15.618 8.72778 14.5336 10.0694 14.5336H14.9306C16.2722 14.5336 17.3611 15.618 17.3611 16.9573V24.5749C17.3611 24.766 17.5167 24.9211 17.7083 24.9211H22.5694C22.6615 24.9211 22.7498 24.8846 22.815 24.8197C22.8801 24.7548 22.9167 24.6667 22.9167 24.5749V10.9991C22.9165 10.8478 22.8832 10.6985 22.8192 10.5614C22.7551 10.4243 22.6618 10.3028 22.5458 10.2054L13.1708 2.32201Z" fill="white"/>
</svg>
