<svg width="25" height="26" viewBox="0 0 25 26" fill="none" xmlns="http://www.w3.org/2000/svg">
<path d="M18.6563 11.6875C19.3342 18.0703 22 20 22 20H1C1 20 4.5 17.4671 4.5 8.6C4.5 6.58481 5.23733 4.65156 6.54983 3.22656C7.8635 1.80156 9.645 1 11.5 1C11.8932 1 12.284 1.03562 12.6667 1.10687" stroke="#969696" stroke-width="1.5" stroke-linecap="round" stroke-linejoin="round"/>
<path d="M20.5 8C21.4283 8 22.3185 7.63125 22.9749 6.97487C23.6313 6.3185 24 5.42826 24 4.5C24 3.57174 23.6313 2.6815 22.9749 2.02513C22.3185 1.36875 21.4283 1 20.5 1C19.5717 1 18.6815 1.36875 18.0251 2.02513C17.3687 2.6815 17 3.57174 17 4.5C17 5.42826 17.3687 6.3185 18.0251 6.97487C18.6815 7.63125 19.5717 8 20.5 8Z" stroke="#00A2A1" stroke-width="1.5" stroke-linecap="round" stroke-linejoin="round"/>
<path d="M13 24C12.8477 24.3041 12.629 24.5566 12.3657 24.7321C12.1025 24.9076 11.8039 25 11.5 25C11.1961 25 10.8975 24.9076 10.6343 24.7321C10.371 24.5566 10.1523 24.3041 10 24" stroke="#969696" stroke-width="1.5" stroke-linecap="round" stroke-linejoin="round"/>
</svg>
