<svg width="25" height="27" viewBox="0 0 25 27" fill="none" xmlns="http://www.w3.org/2000/svg">
<path d="M24.6699 16.9319L22.7393 15.2443C22.8307 14.6717 22.8779 14.0871 22.8779 13.5024C22.8779 12.9178 22.8307 12.3332 22.7393 11.7606L24.6699 10.073C24.8155 9.94551 24.9197 9.77575 24.9687 9.58626C25.0176 9.39678 25.009 9.19654 24.944 9.01218L24.9175 8.93382C24.386 7.41505 23.5901 6.00712 22.5684 4.77807L22.5153 4.71478C22.3914 4.56576 22.2262 4.45864 22.0415 4.40754C21.8568 4.35643 21.6613 4.36373 21.4808 4.42849L19.0845 5.29942C18.2003 4.55807 17.2129 3.97343 16.146 3.56358L15.6832 1.00202C15.6483 0.809279 15.5569 0.63196 15.421 0.493621C15.2852 0.355283 15.1114 0.262475 14.9228 0.227527L14.8432 0.212459C13.3076 -0.0708196 11.6924 -0.0708196 10.1568 0.212459L10.0772 0.227527C9.88858 0.262475 9.7148 0.355283 9.57897 0.493621C9.44315 0.63196 9.3517 0.809279 9.31679 1.00202L8.8511 3.57564C7.79265 3.98557 6.80697 4.5699 5.93316 5.30545L3.51922 4.42849C3.33874 4.36322 3.1431 4.35565 2.95831 4.40679C2.77352 4.45793 2.60833 4.56535 2.48468 4.71478L2.43162 4.77807C1.41107 6.00799 0.615356 7.41568 0.0825336 8.93382L0.0560068 9.01218C-0.0766269 9.38888 0.0324276 9.81078 0.330117 10.073L2.28425 11.7787C2.19288 12.3452 2.14867 12.9238 2.14867 13.4994C2.14867 14.078 2.19288 14.6567 2.28425 15.2202L0.330117 16.9259C0.184502 17.0534 0.0802831 17.2231 0.0313193 17.4126C-0.0176446 17.6021 -0.00903384 17.8023 0.0560068 17.9867L0.0825336 18.065C0.616016 19.5839 1.40592 20.9852 2.43162 22.2208L2.48468 22.2841C2.60863 22.4331 2.77383 22.5402 2.95851 22.5913C3.14319 22.6424 3.33868 22.6351 3.51922 22.5704L5.93316 21.6934C6.81149 22.4317 7.79298 23.0164 8.8511 23.4232L9.31679 25.9968C9.3517 26.1896 9.44315 26.3669 9.57897 26.5052C9.7148 26.6436 9.88858 26.7364 10.0772 26.7713L10.1568 26.7864C11.7065 27.0712 13.2935 27.0712 14.8432 26.7864L14.9228 26.7713C15.1114 26.7364 15.2852 26.6436 15.421 26.5052C15.5569 26.3669 15.6483 26.1896 15.6832 25.9968L16.146 23.4353C17.2125 23.0265 18.2054 22.44 19.0845 21.6994L21.4808 22.5704C21.6613 22.6356 21.8569 22.6432 22.0417 22.5921C22.2265 22.5409 22.3917 22.4335 22.5153 22.2841L22.5684 22.2208C23.5941 20.9822 24.384 19.5839 24.9175 18.065L24.944 17.9867C25.0766 17.616 24.9676 17.1941 24.6699 16.9319ZM20.6467 12.1162C20.7203 12.5712 20.7587 13.0383 20.7587 13.5055C20.7587 13.9726 20.7203 14.4397 20.6467 14.8947L20.4521 16.1032L22.6539 18.0289C22.3201 18.8151 21.8988 19.5593 21.3983 20.2469L18.663 19.2554L17.7376 20.0329C17.0331 20.6236 16.2491 21.0877 15.4003 21.4132L14.2773 21.8441L13.7497 24.7673C12.9173 24.8637 12.0768 24.8637 11.2444 24.7673L10.7168 21.8381L9.60269 21.4011C8.76268 21.0756 7.98161 20.6115 7.28307 20.0239L6.35758 19.2434L3.6047 20.2439C3.10364 19.5538 2.6851 18.8094 2.3491 18.0259L4.5744 16.0821L4.38281 14.8766C4.31208 14.4276 4.27376 13.9635 4.27376 13.5055C4.27376 13.0444 4.30913 12.5833 4.38281 12.1343L4.5744 10.9288L2.3491 8.98505C2.68216 8.1985 3.10364 7.45716 3.6047 6.76704L6.35758 7.76756L7.28307 6.98704C7.98161 6.39938 8.76268 5.93529 9.60269 5.60982L10.7198 5.17887L11.2473 2.24965C12.0756 2.15322 12.9215 2.15322 13.7527 2.24965L14.2802 5.17285L15.4032 5.60379C16.2491 5.92926 17.0361 6.39336 17.7405 6.98402L18.666 7.76153L21.4012 6.77006C21.9023 7.46017 22.3208 8.20453 22.6568 8.98807L20.4551 10.9138L20.6467 12.1162ZM12.5029 7.90016C9.63806 7.90016 7.31549 10.2749 7.31549 13.2041C7.31549 16.1333 9.63806 18.508 12.5029 18.508C15.3678 18.508 17.6904 16.1333 17.6904 13.2041C17.6904 10.2749 15.3678 7.90016 12.5029 7.90016ZM14.8373 15.5909C14.5311 15.9048 14.1673 16.1538 13.7667 16.3234C13.366 16.493 12.9366 16.58 12.5029 16.5793C11.6217 16.5793 10.7934 16.2267 10.1686 15.5909C9.86154 15.2778 9.61806 14.9058 9.45214 14.4962C9.28623 14.0866 9.20117 13.6474 9.20184 13.2041C9.20184 12.303 9.54669 11.4562 10.1686 10.8173C10.7934 10.1784 11.6217 9.82886 12.5029 9.82886C13.3842 9.82886 14.2124 10.1784 14.8373 10.8173C15.1444 11.1304 15.3878 11.5024 15.5538 11.912C15.7197 12.3216 15.8047 12.7607 15.8041 13.2041C15.8041 14.1052 15.4592 14.952 14.8373 15.5909Z" fill="#969696"/>
</svg>
